<svg xmlns="http://www.w3.org/2000/svg" viewBox="0 0 180 96" width="180" height="96" preserveAspectRatio="xMidYMid meet" style="width: 100%; height: 100%; transform: translate3d(0px, 0px, 0px);"><defs><clipPath id="__lottie_element_3"><rect width="180" height="96" x="0" y="0"></rect></clipPath><mask id="__lottie_element_4" mask-type="alpha"><g transform="matrix(1.6799999475479126,0,0,1.6799999475479126,-329.9042053222656,139.33319091796875)" opacity="1" style="display: block;"><g opacity="1" transform="matrix(1,0,0,1,249.9429931640625,-54.3650016784668)"><path fill="rgb(255,255,255)" fill-opacity="0.9252725984937137" d=" M78,0 C78,0 78,0 78,0 C78,17.66080093383789 63.66080093383789,32 46,32 C46,32 -46,32 -46,32 C-63.66080093383789,32 -78,17.66080093383789 -78,0 C-78,0 -78,0 -78,0 C-78,-17.66080093383789 -63.66080093383789,-32 -46,-32 C-46,-32 46,-32 46,-32 C63.66080093383789,-32 78,-17.66080093383789 78,0z"></path><path stroke-linecap="butt" stroke-linejoin="miter" fill-opacity="0" stroke-miterlimit="4" stroke="rgb(255,255,255)" stroke-opacity="0" stroke-width="2" d=" M78,0 C78,0 78,0 78,0 C78,17.66080093383789 63.66080093383789,32 46,32 C46,32 -46,32 -46,32 C-63.66080093383789,32 -78,17.66080093383789 -78,0 C-78,0 -78,0 -78,0 C-78,-17.66080093383789 -63.66080093383789,-32 -46,-32 C-46,-32 46,-32 46,-32 C63.66080093383789,-32 78,-17.66080093383789 78,0z"></path></g></g></mask><linearGradient id="__lottie_element_8" spreadMethod="pad" gradientUnits="userSpaceOnUse" x1="-50.297000885009766" y1="0" x2="51.525001525878906" y2="3.1050000190734863"><stop offset="30%" stop-color="rgb(78,238,191)"></stop><stop offset="50%" stop-color="rgb(78,238,191)"></stop><stop offset="70%" stop-color="rgb(78,238,191)"></stop></linearGradient><mask id="__lottie_element_10"><path fill="url(#__lottie_element_9)" d=" M52.15800094604492,-77.03500366210938 C52.15800094604492,-77.03500366210938 52.15800094604492,77.03500366210938 52.15800094604492,77.03500366210938 C52.15800094604492,77.03500366210938 -52.15800094604492,77.03500366210938 -52.15800094604492,77.03500366210938 C-52.15800094604492,77.03500366210938 -52.15800094604492,-77.03500366210938 -52.15800094604492,-77.03500366210938 C-52.15800094604492,-77.03500366210938 52.15800094604492,-77.03500366210938 52.15800094604492,-77.03500366210938z"></path></mask><linearGradient id="__lottie_element_9" spreadMethod="pad" gradientUnits="userSpaceOnUse" x1="-50.297000885009766" y1="0" x2="51.525001525878906" y2="3.1050000190734863"><stop stop-color="rgb(255,255,255)" offset="0%" stop-opacity="0"></stop><stop stop-color="rgb(255,255,255)" offset="15%" stop-opacity="0.5"></stop><stop stop-color="rgb(255,255,255)" offset="30%" stop-opacity="1"></stop><stop stop-color="rgb(255,255,255)" offset="50%" stop-opacity="1"></stop><stop stop-color="rgb(255,255,255)" offset="70%" stop-opacity="1"></stop><stop stop-color="rgb(255,255,255)" offset="85%" stop-opacity="0.5"></stop><stop stop-color="rgb(255,255,255)" offset="100%" stop-opacity="0"></stop></linearGradient></defs><g clip-path="url(#__lottie_element_3)"><g mask="url(#__lottie_element_4)" style="display: block;"><g transform="matrix(1.0571800470352173,0,0,1,-592,102.5)" opacity="1"><g opacity="1" transform="matrix(5.608479976654053,0,0,1.1494499444961548,278.75201416015625,-56.21099853515625)"><path fill="url(#__lottie_element_8)" mask="url(#__lottie_element_10)" fill-opacity="1" d="M0 0 M52.15800094604492,-77.03500366210938 C52.15800094604492,-77.03500366210938 52.15800094604492,77.03500366210938 52.15800094604492,77.03500366210938 C52.15800094604492,77.03500366210938 -52.15800094604492,77.03500366210938 -52.15800094604492,77.03500366210938 C-52.15800094604492,77.03500366210938 -52.15800094604492,-77.03500366210938 -52.15800094604492,-77.03500366210938 C-52.15800094604492,-77.03500366210938 52.15800094604492,-77.03500366210938 52.15800094604492,-77.03500366210938z"></path></g></g></g></g></svg>