<?xml version="1.0" encoding="UTF-8"?>
<svg id="Layer_2" data-name="Layer 2" xmlns="http://www.w3.org/2000/svg" viewBox="0 0 36 36">
  <defs>
    <style>
      .cls-1 {
        fill: #fff;
      }
    </style>
  </defs>
  <g id="container-grid">
    <path class="cls-1" d="M1.71,0C.78,0,0,.78,0,1.71V34.29c0,.94,.78,1.71,1.71,1.71H34.29c.94,0,1.71-.78,1.71-1.71V1.71c0-.94-.78-1.71-1.71-1.71H1.71Zm0,1.71H34.29V34.29H1.71V1.71Zm11.94,6.86l-4.22,18.86h2.06l1.22-5.51h4.11l1.19,5.51h2.08L15.98,8.57h-2.33Zm10.98,0c-.71,0-1.27,.54-1.27,1.34s.54,1.34,1.24,1.34h.03c.79,0,1.3-.54,1.3-1.34s-.51-1.34-1.3-1.34Zm-9.86,2.09h.08c.22,1.37,.47,2.91,.74,4.22l.97,4.83h-3.51s.94-4.8,.94-4.8c.27-1.26,.55-2.85,.77-4.25Zm8.81,2.19v14.57h2.14V12.86h-2.14Z"/>
  </g>
</svg>