<?xml version="1.0" encoding="UTF-8"?>
<svg id="Layer_2" data-name="Layer 2" xmlns="http://www.w3.org/2000/svg" viewBox="0 0 36 36">
  <defs>
    <style>
      .cls-1 {
        fill: #fff;
      }
    </style>
  </defs>
  <g id="container-grid">
    <path class="cls-1" d="M1.71,0C.78,0,0,.78,0,1.71V34.29c0,.94,.78,1.71,1.71,1.71H34.29c.94,0,1.71-.78,1.71-1.71V1.71c0-.94-.78-1.71-1.71-1.71H1.71Zm0,1.71H34.29V34.29H1.71V1.71Zm10.79,6.86c-1.23,0-2.22,.14-3.07,.36V27.43s2.11,0,2.11,0v-7.86c.3,.03,.58,.03,.93,.03,1.65,0,3.37-.68,4.36-2.06,.71-.93,1.12-2.08,1.12-3.79s-.47-2.96-1.34-3.84c-.96-.93-2.41-1.34-4.11-1.34Zm.33,1.41c2.36,0,3.13,1.7,3.13,3.59,0,2.61-1.4,3.98-3.46,3.98-.36,0-.6-.03-.85-.05v-7.38c.27-.08,.69-.14,1.18-.14Zm10.92,3.74c-2.14,0-3.79,1.52-3.79,3.69,0,1.51,.97,2.67,2.76,3.8,1.39,.88,1.76,1.6,1.76,2.62,0,1.18-.79,1.93-2.02,1.93-.88,0-1.74-.39-2.22-.69l-.54,1.6c.6,.47,1.71,.77,2.7,.77,2.28,0,4.15-1.29,4.15-3.97,0-1.84-1.25-3.08-2.84-4.08-1.37-.88-1.71-1.4-1.71-2.29s.6-1.71,1.76-1.71c.74,0,1.31,.25,1.85,.61l.57-1.6c-.57-.36-1.36-.69-2.45-.69Z"/>
  </g>
</svg>