<?xml version="1.0" encoding="UTF-8"?>
<svg id="Layer_2" data-name="Layer 2" xmlns="http://www.w3.org/2000/svg" viewBox="0 0 28 40">
  <defs>
    <style>
      .cls-1 {
        fill: #fff;
      }
    </style>
  </defs>
  <g id="container-grid">
    <path class="cls-1" d="M7.44,0C3.34,0,0,3.25,0,7.23c0,2.81,1.71,5.19,4.12,6.38-2.41,1.2-4.12,3.57-4.12,6.38s1.71,5.19,4.12,6.38c-2.41,1.2-4.12,3.57-4.12,6.38,0,3.99,3.34,7.23,7.44,7.23s7.44-3.25,7.44-7.23v-9.23c1.17,2.17,3.44,3.7,6.12,3.7,3.86,0,7-3.06,7-6.81,0-3.08-2.16-5.59-5.06-6.43,2.92-.98,5.06-3.6,5.06-6.77,0-3.99-3.34-7.23-7.44-7.23H7.44Zm0,1.7h5.69V12.77H7.44c-3.15,0-5.69-2.47-5.69-5.53S4.29,1.7,7.44,1.7Zm7.44,0h5.69c3.15,0,5.69,2.47,5.69,5.53s-2.54,5.53-5.69,5.53h-5.69V1.7ZM7.44,14.47h5.69v11.06H7.44c-3.15,0-5.69-2.47-5.69-5.53s2.54-5.53,5.69-5.53Zm7.44,0h2.93c-1.26,.64-2.26,1.62-2.93,2.85v-2.85Zm6.12,.85c2.91,0,5.25,2.28,5.25,5.11s-2.34,5.11-5.25,5.11-5.25-2.28-5.25-5.11,2.34-5.11,5.25-5.11ZM7.44,27.23h5.69v5.53c0,3.07-2.54,5.53-5.69,5.53s-5.69-2.47-5.69-5.53,2.54-5.53,5.69-5.53Z"/>
  </g>
</svg>