<?xml version="1.0" encoding="UTF-8"?>
<svg id="Layer_2" data-name="Layer 2" xmlns="http://www.w3.org/2000/svg" viewBox="0 0 36 36">
  <defs>
    <style>
      .cls-1 {
        fill: #fff;
      }
    </style>
  </defs>
  <g id="container-grid">
    <path class="cls-1" d="M.72,0C.27,.07-.05,.45,0,.86L3.1,31.71c.04,.31,.29,.57,.63,.66l14.02,3.59c.16,.04,.33,.04,.49,0l14.02-3.59c.34-.09,.59-.35,.63-.66L36,.86c.02-.22-.06-.44-.23-.6-.17-.16-.4-.25-.65-.25H.72ZM1.84,1.56H34.16l-2.93,29.46-13.23,3.35-13.23-3.35L1.84,1.56ZM7.07,6.31c-.45,.07-.76,.45-.71,.86l1.18,11.57c.03,.4,.4,.72,.85,.73h14l-.38,3.59-3.97,.76-4.03-.76-.14-1.27c-.03-.41-.41-.73-.88-.73h-4.27c-.25,0-.48,.09-.65,.25-.17,.17-.25,.38-.23,.6l.49,4.79c.03,.31,.26,.59,.6,.68l8.71,2.37,.11,.02c.16,.04,.33,.04,.49,0l8.82-2.4c.35-.09,.6-.36,.63-.68l1.15-11.76c.02-.22-.05-.43-.22-.59s-.39-.26-.63-.26H13.07l-.22-2.42h15.53c.46,0,.84-.31,.88-.71l.38-3.79c.02-.22-.06-.44-.23-.6-.17-.16-.4-.25-.65-.25H7.24c-.05,0-.11,0-.16,0Zm1.12,1.56H27.81l-.22,2.23H11.89c-.25,0-.48,.09-.65,.25-.17,.17-.25,.38-.23,.6l.41,3.99c.04,.39,.41,.7,.85,.71h14.76l-1.04,10.39-8,2.15-8-2.15-.33-3.42h2.52l.11,1.15c.03,.35,.3,.63,.68,.71l4.88,.9c.12,.02,.24,.02,.36,0l4.79-.9c.38-.08,.66-.36,.68-.71l.52-5.04c.01-.22-.07-.43-.24-.58-.17-.16-.4-.25-.64-.25H9.18l-.99-10.03Z"/>
  </g>
</svg>