<?xml version="1.0" encoding="UTF-8"?>
<svg id="Layer_2" data-name="Layer 2" xmlns="http://www.w3.org/2000/svg" viewBox="0 0 36 36">
  <defs>
    <style>
      .cls-1 {
        fill: #fff;
      }
    </style>
  </defs>
  <g id="container-grid">
    <path class="cls-1" d="M2.29,0C1.03,0,0,1.03,0,2.29v31.43c0,1.25,1.03,2.29,2.29,2.29h31.43c1.25,0,2.29-1.03,2.29-2.29V2.29c0-1.25-1.03-2.29-2.29-2.29H2.29Zm0,1.71h31.43c.32,0,.57,.25,.57,.57v31.43c0,.32-.25,.57-.57,.57H2.29c-.32,0-.57-.25-.57-.57V2.29c0-.32,.25-.57,.57-.57Zm14,14.57v10.78c0,1.65-.63,2.08-1.71,2.08s-1.93-.71-2.45-1.63l-2.69,1.63c.78,1.65,2.69,3.43,5.34,3.43,2.93,0,4.94-1.56,4.94-4.99v-11.3h-3.43Zm10.67,0c-2.92,0-4.79,1.87-4.79,4.32,0,2.66,1.57,3.92,3.93,4.93l.82,.35c1.49,.65,2.23,1.05,2.23,2.17,0,.93-.71,1.61-2.07,1.61-1.61,0-2.38-1.09-3.08-2.24l-2.57,1.71c.96,1.9,2.69,3.43,5.72,3.43s5.42-1.61,5.42-4.56c0-2.73-1.57-3.95-4.35-5.14l-.82-.35c-1.4-.61-2.01-1-2.01-1.99,0-.79,.61-1.4,1.57-1.4s1.54,.4,2.1,1.4l2.55-1.63c-1.07-1.9-2.57-2.62-4.65-2.62Z"/>
  </g>
</svg>