<?xml version="1.0" encoding="UTF-8"?>
<svg id="Layer_2" data-name="Layer 2" xmlns="http://www.w3.org/2000/svg" viewBox="0 0 36 36">
  <defs>
    <style>
      .cls-1 {
        fill: #fff;
      }
    </style>
  </defs>
  <g id="container-grid">
    <path class="cls-1" d="M21.98,0c-.09,.01-.17,.04-.26,.08-.7,.35-1.5,1.38-1.66,1.59,0,.01-.02,.03-.03,.04-.79,1.18-1.21,2.57-1.23,4.01,0,1.08,.2,2.15,.63,3.18,1,2.39,3.07,4.38,5.53,5.3,.08,.03,.16,.06,.31,.11,.01,0,.13,.04,.15,.05l.09,.03c.13,.04,.26,.08,.39,.11,.65,.13,1.28,.2,1.88,.22,.1,0,.2,0,.31,0,4.48,0,6.22-3.16,6.8-4.22,.06-.1,.1-.19,.14-.24t0,0c.25-.37,.16-.88-.22-1.14-.37-.25-.88-.16-1.13,.22h0c-1.2,1.76-3.24,2.29-6.08,1.59-.21-.05-.44-.13-.65-.21-.27-.1-.54-.21-.79-.33-.5-.25-.96-.54-1.38-.87-2.49-1.93-3.47-5.96-2.01-8.28,.19-.31,.16-.71-.09-.98-.19-.2-.45-.3-.72-.26Zm-7.25,1.63c-.19,0-.37,.06-.53,.19-1.24,1.01-2.5,2.66-2.56,2.72,0,.01-.01,.02-.02,.04-2.24,3.26-2.41,7.89-.43,11.81,.31,.62,.66,1.21,1.04,1.75l.11,.16c.32,.46,.67,.99,1.13,1.4,.16,.18,.33,.35,.49,.52l.08,.08,.07,.07c.17,.16,.34,.33,.52,.49h0s.03,.03,.05,.05c.2,.18,.41,.35,.68,.56l.07,.05c.21,.17,.43,.33,.65,.49l.07,.05c.08,.05,.15,.1,.23,.15l.08,.05,.09,.06c.16,.11,.32,.21,.55,.34,.15,.09,.3,.18,.41,.23,.04,.03,.09,.05,.2,.11l.25,.13s.07,.03,.08,.04c.16,.08,.33,.16,.5,.24l.26,.12c.17,.07,.34,.14,.55,.22l.1,.04s.09,.04,.09,.04c.15,.05,.31,.11,.47,.16l.36,.12c.18,.06,.39,.13,.61,.17,1.12,.19,2.2,.28,3.23,.28,.12,0,.24,0,.36,0,9.03-.2,11.38-7.87,11.41-7.95,.11-.39-.07-.8-.43-.97s-.8-.05-1.03,.28c-2.29,3.34-6.62,4.76-11.02,3.59-.2-.05-.4-.11-.65-.19-.04-.01-.08-.03-.14-.05-.14-.04-.28-.09-.44-.15l-.23-.09c-.13-.05-.26-.1-.42-.17l-.11-.05c-.19-.08-.38-.18-.55-.26l-.47-.24c-.11-.05-.2-.11-.34-.19l-.08-.04-.08-.05c-.12-.07-.24-.14-.35-.22l-.08-.05s-.07-.05-.08-.05c-.1-.06-.19-.12-.28-.18-.2-.14-.39-.29-.62-.47l-.09-.07c-2.11-1.68-3.67-3.93-4.4-6.35-.68-2.21-.18-5.11,1.35-7.75,.2-.34,.12-.78-.18-1.03-.15-.13-.34-.19-.52-.19ZM5.73,4.09c-.19,0-.39,.07-.55,.21-1.56,1.4-2.73,3.22-2.86,3.43C-1.03,12.6-.38,20.16,1.91,24.79c.04,.1,.09,.19,.14,.28l.03,.05c.04,.09,.09,.19,.11,.21,.03,.06,.06,.13,.08,.15,.04,.08,.08,.15,.15,.27l.26,.45c.04,.06,.08,.12,.09,.15,.05,.08,.11,.17,.16,.26l.13,.2c.04,.06,.08,.12,.1,.15,.13,.2,.26,.4,.4,.58,0,0,.01,.02,.02,.02l.05,.07c.12,.17,.23,.33,.34,.46l.47,.59s.06,.07,.06,.07l.07,.08c.14,.17,.29,.35,.44,.51,.02,.03,.04,.05,.07,.07,.14,.16,.29,.31,.44,.48l.15,.14c.12,.13,.24,.25,.37,.37,0,0,.06,.06,.06,.06l.13,.12c.15,.15,.31,.29,.43,.4,0,0,.12,.11,.13,.12,.15,.13,.3,.26,.45,.39l.78,.62c.13,.1,.27,.19,.42,.3,.05,.04,.11,.08,.16,.11,.02,.02,.05,.04,.06,.05l.59,.39c.21,.14,.43,.27,.69,.43l.14,.08c.16,.1,.33,.19,.49,.27,.09,.05,.19,.1,.27,.14,.11,.06,.23,.13,.42,.22,.02,0,.15,.07,.16,.08,.19,.09,.37,.18,.61,.28,0,0,.08,.04,.08,.04,.22,.09,.43,.18,.71,.29,.04,.02,.09,.04,.1,.04,.2,.08,.41,.15,.58,.21,.02,0,.1,.04,.12,.05,.23,.08,.45,.15,.74,.24,.05,.02,.1,.03,.11,.03l.16,.05c.2,.06,.4,.12,.61,.17,1.52,.28,3.01,.42,4.41,.42h0c11.72,0,15.46-9.43,15.49-9.53,.14-.38-.01-.81-.37-1.01-.35-.19-.8-.1-1.05,.22-3.01,3.96-8.68,5.43-15.18,3.94-.16-.04-.32-.08-.47-.13l-.31-.09c-.21-.06-.42-.13-.62-.2,0,0-.1-.04-.1-.04-.18-.06-.36-.13-.51-.19l-.18-.07c-.2-.08-.4-.16-.59-.25l-.11-.05c-.17-.08-.34-.16-.51-.24-.01,0-.14-.07-.16-.07-.12-.06-.23-.12-.38-.2l-.67-.36c-.07-.04-.14-.09-.2-.12-.2-.12-.41-.25-.61-.38-.05-.03-.09-.06-.17-.12-.14-.09-.28-.18-.48-.32l-.08-.06c-.14-.1-.27-.2-.38-.28-.07-.05-.14-.11-.26-.19-.1-.08-.2-.16-.3-.23l-.18-.15c-.15-.12-.29-.25-.44-.37-.02-.02-.04-.03-.06-.05-.16-.15-.33-.3-.53-.49l-.58-.58c-.14-.14-.28-.29-.44-.47-.15-.16-.29-.33-.48-.55l-.35-.42c-.04-.06-.09-.12-.14-.19-.12-.16-.24-.32-.35-.48-3.18-4.38-4.01-13.54-1.53-16.89,.25-.34,.2-.81-.11-1.09-.15-.14-.35-.21-.55-.21Z"/>
  </g>
</svg>